<svg width="24" height="25" viewBox="0 0 24 25" fill="none" xmlns="http://www.w3.org/2000/svg">
<path fill-rule="evenodd" clip-rule="evenodd" d="M14.3851 15.9461C13.0372 17.023 11.3282 17.5429 9.60898 17.3991C7.88975 17.2553 6.29084 16.4587 5.14064 15.1728C3.99044 13.8869 3.37626 12.2094 3.42425 10.4849C3.47223 8.7603 4.17874 7.11956 5.39866 5.89964C6.61859 4.67971 8.25932 3.97321 9.98389 3.92522C11.7085 3.87724 13.3859 4.49141 14.6718 5.64161C15.9577 6.79181 16.7543 8.39072 16.8981 10.11C17.042 11.8292 16.522 13.5382 15.4451 14.8861L20.6011 20.0411C20.6748 20.1097 20.7339 20.1925 20.7749 20.2845C20.8159 20.3765 20.8379 20.4758 20.8397 20.5765C20.8415 20.6772 20.8229 20.7773 20.7852 20.8707C20.7475 20.964 20.6913 21.0489 20.6201 21.1201C20.5489 21.1913 20.4641 21.2475 20.3707 21.2852C20.2773 21.3229 20.1773 21.3414 20.0766 21.3397C19.9759 21.3379 19.8765 21.3158 19.7845 21.2748C19.6926 21.2339 19.6098 21.1747 19.5411 21.1011L14.3851 15.9461ZM6.45909 14.3841C5.72513 13.65 5.22524 12.7149 5.0226 11.6968C4.81996 10.6788 4.92366 9.6235 5.3206 8.66436C5.71754 7.70523 6.3899 6.88529 7.2527 6.30817C8.11551 5.73104 9.13003 5.42265 10.1681 5.42195C11.2061 5.42125 12.221 5.72828 13.0846 6.30424C13.9482 6.8802 14.6216 7.69924 15.0199 8.65784C15.4181 9.61644 15.5232 10.6716 15.322 11.6899C15.1207 12.7082 14.6221 13.644 13.8891 14.3791L13.8841 14.3841L13.8791 14.3881C12.8942 15.3707 11.5595 15.9222 10.1683 15.9214C8.777 15.9207 7.44293 15.3677 6.45909 14.3841Z" fill="white"/>
</svg>
