<svg width="16" height="16" viewBox="0 0 16 16" fill="none" xmlns="http://www.w3.org/2000/svg">
<path d="M8.03338 1.50669C8.39338 1.50669 8.72672 1.64669 8.98005 1.90003L14.1601 7.06003C14.4134 7.31336 14.5534 7.64669 14.5534 8.00003C14.5534 8.35336 14.4134 8.68669 14.1601 8.94003L8.98005 14.1C8.72672 14.3534 8.38672 14.4934 8.03338 14.4934C7.68005 14.4934 7.34005 14.3534 7.08672 14.1L1.90672 8.94003C1.65338 8.68669 1.51338 8.35336 1.51338 8.00003C1.51338 7.64669 1.65338 7.31336 1.90672 7.06003L7.08672 1.90003C7.34005 1.64669 7.68005 1.50669 8.03338 1.50669ZM8.03338 0.840027C7.52005 0.840027 7.00672 1.03336 6.61338 1.42669L1.43338 6.58669C0.646717 7.36669 0.646717 8.63336 1.43338 9.41336L6.61338 14.5734C7.00672 14.9667 7.52005 15.16 8.03338 15.16C8.54672 15.16 9.06005 14.9667 9.45338 14.5734L14.6334 9.41336C15.4201 8.63336 15.4201 7.36669 14.6334 6.58669L9.45338 1.42669C9.06005 1.03336 8.54672 0.840027 8.03338 0.840027Z" fill="#808080"/>
</svg>
